<mxfile host="app.diagrams.net" modified="2020-10-15T05:24:37.316Z" agent="5.0 (Macintosh; Intel Mac OS X 10_14_0) AppleWebKit/537.36 (KHTML, like Gecko) Chrome/84.0.4147.105 Safari/537.36" etag="b6q9Y0QG0FXcLoiTVZCa" version="13.8.0" type="github">
  <diagram id="fzVHMRq2OoplXC-9H8n4" name="Page-1">
    <mxGraphModel dx="1113" dy="722" grid="1" gridSize="10" guides="1" tooltips="1" connect="1" arrows="1" fold="1" page="1" pageScale="1" pageWidth="827" pageHeight="1169" math="0" shadow="0">
      <root>
        <mxCell id="0" />
        <mxCell id="1" parent="0" />
        <mxCell id="IBEG4nVtAPEdGY8RLfQG-3" style="edgeStyle=orthogonalEdgeStyle;rounded=0;orthogonalLoop=1;jettySize=auto;html=1;exitX=1;exitY=0.5;exitDx=0;exitDy=0;entryX=0;entryY=0.5;entryDx=0;entryDy=0;" edge="1" parent="1" source="IBEG4nVtAPEdGY8RLfQG-1" target="IBEG4nVtAPEdGY8RLfQG-2">
          <mxGeometry relative="1" as="geometry" />
        </mxCell>
        <mxCell id="IBEG4nVtAPEdGY8RLfQG-1" value="&lt;p class=&quot;p1&quot; style=&quot;margin: 0px ; font-stretch: normal ; font-size: 13px ; line-height: normal ; font-family: &amp;#34;helvetica neue&amp;#34;&quot;&gt;&lt;span class=&quot;s1&quot;&gt;RE1: \sLOGIN\s[^\n]{100}&lt;/span&gt;&lt;/p&gt;&lt;p class=&quot;p1&quot; style=&quot;margin: 0px ; font-stretch: normal ; font-size: 13px ; line-height: normal ; font-family: &amp;#34;helvetica neue&amp;#34;&quot;&gt;&lt;span class=&quot;s1&quot;&gt;RE2: ^SEARCH\s+[^\n]{1024}&lt;/span&gt;&lt;/p&gt;&lt;p class=&quot;p1&quot; style=&quot;margin: 0px ; font-stretch: normal ; font-size: 13px ; line-height: normal ; font-family: &amp;#34;helvetica neue&amp;#34;&quot;&gt;&lt;span class=&quot;s1&quot;&gt;RE3: DELETE.+FROM&lt;/span&gt;&lt;/p&gt;&lt;p class=&quot;p1&quot; style=&quot;margin: 0px ; font-stretch: normal ; font-size: 13px ; line-height: normal ; font-family: &amp;#34;helvetica neue&amp;#34;&quot;&gt;&lt;span class=&quot;s1&quot;&gt;RE4: abc.{5}def\s*.{5}gh&lt;/span&gt;&lt;/p&gt;&lt;p class=&quot;p1&quot; style=&quot;margin: 0px ; font-stretch: normal ; font-size: 13px ; line-height: normal ; font-family: &amp;#34;helvetica neue&amp;#34;&quot;&gt;&lt;span class=&quot;s1&quot;&gt;...&lt;/span&gt;&lt;/p&gt;" style="shape=document;whiteSpace=wrap;html=1;boundedLbl=1;align=left;" vertex="1" parent="1">
          <mxGeometry x="10" y="340" width="190" height="110" as="geometry" />
        </mxCell>
        <mxCell id="IBEG4nVtAPEdGY8RLfQG-5" style="edgeStyle=orthogonalEdgeStyle;rounded=0;orthogonalLoop=1;jettySize=auto;html=1;exitX=0.5;exitY=0;exitDx=0;exitDy=0;" edge="1" parent="1" source="IBEG4nVtAPEdGY8RLfQG-2" target="IBEG4nVtAPEdGY8RLfQG-4">
          <mxGeometry relative="1" as="geometry" />
        </mxCell>
        <mxCell id="IBEG4nVtAPEdGY8RLfQG-7" style="edgeStyle=orthogonalEdgeStyle;rounded=0;orthogonalLoop=1;jettySize=auto;html=1;exitX=0.5;exitY=1;exitDx=0;exitDy=0;entryX=0.5;entryY=0;entryDx=0;entryDy=0;" edge="1" parent="1" source="IBEG4nVtAPEdGY8RLfQG-2" target="IBEG4nVtAPEdGY8RLfQG-6">
          <mxGeometry relative="1" as="geometry" />
        </mxCell>
        <mxCell id="IBEG4nVtAPEdGY8RLfQG-22" value="" style="edgeStyle=orthogonalEdgeStyle;rounded=0;orthogonalLoop=1;jettySize=auto;html=1;" edge="1" parent="1" source="IBEG4nVtAPEdGY8RLfQG-2" target="IBEG4nVtAPEdGY8RLfQG-21">
          <mxGeometry relative="1" as="geometry" />
        </mxCell>
        <mxCell id="IBEG4nVtAPEdGY8RLfQG-2" value="regex decomposition" style="shape=process;whiteSpace=wrap;html=1;backgroundOutline=1;fillColor=#bac8d3;strokeColor=#23445d;" vertex="1" parent="1">
          <mxGeometry x="260" y="365" width="120" height="60" as="geometry" />
        </mxCell>
        <mxCell id="IBEG4nVtAPEdGY8RLfQG-9" style="edgeStyle=orthogonalEdgeStyle;rounded=0;orthogonalLoop=1;jettySize=auto;html=1;exitX=1;exitY=0.5;exitDx=0;exitDy=0;entryX=0;entryY=0.5;entryDx=0;entryDy=0;" edge="1" parent="1" source="IBEG4nVtAPEdGY8RLfQG-4" target="IBEG4nVtAPEdGY8RLfQG-8">
          <mxGeometry relative="1" as="geometry" />
        </mxCell>
        <mxCell id="IBEG4nVtAPEdGY8RLfQG-4" value="&lt;p class=&quot;p1&quot; style=&quot;margin: 0px ; font-stretch: normal ; line-height: normal&quot;&gt;&lt;font face=&quot;helvetica neue&quot;&gt;&lt;span style=&quot;font-size: 13px&quot;&gt;prefix1: \sLOGIN\s&lt;/span&gt;&lt;/font&gt;&lt;/p&gt;&lt;p class=&quot;p1&quot; style=&quot;margin: 0px ; font-stretch: normal ; line-height: normal&quot;&gt;&lt;font face=&quot;helvetica neue&quot;&gt;&lt;span style=&quot;font-size: 13px&quot;&gt;prefix2: ^SEARCH\s+&lt;/span&gt;&lt;/font&gt;&lt;/p&gt;&lt;p class=&quot;p1&quot; style=&quot;margin: 0px ; font-stretch: normal ; line-height: normal&quot;&gt;&lt;font face=&quot;helvetica neue&quot;&gt;&lt;span style=&quot;font-size: 13px&quot;&gt;prefix3: DELETE.+FROM&lt;/span&gt;&lt;/font&gt;&lt;/p&gt;&lt;p class=&quot;p1&quot; style=&quot;margin: 0px ; font-stretch: normal ; line-height: normal&quot;&gt;&lt;font face=&quot;helvetica neue&quot;&gt;&lt;span style=&quot;font-size: 13px&quot;&gt;prefix4: abc&lt;/span&gt;&lt;/font&gt;&lt;/p&gt;&lt;p class=&quot;p1&quot; style=&quot;margin: 0px ; font-stretch: normal ; line-height: normal&quot;&gt;&lt;font face=&quot;helvetica neue&quot;&gt;&lt;span style=&quot;font-size: 13px&quot;&gt;...&lt;/span&gt;&lt;/font&gt;&lt;/p&gt;" style="shape=document;whiteSpace=wrap;html=1;boundedLbl=1;align=left;" vertex="1" parent="1">
          <mxGeometry x="225" y="180" width="190" height="110" as="geometry" />
        </mxCell>
        <mxCell id="IBEG4nVtAPEdGY8RLfQG-16" value="" style="edgeStyle=orthogonalEdgeStyle;rounded=0;orthogonalLoop=1;jettySize=auto;html=1;" edge="1" parent="1" source="IBEG4nVtAPEdGY8RLfQG-6" target="IBEG4nVtAPEdGY8RLfQG-15">
          <mxGeometry relative="1" as="geometry" />
        </mxCell>
        <mxCell id="IBEG4nVtAPEdGY8RLfQG-6" value="&lt;p class=&quot;p1&quot; style=&quot;margin: 0px ; font-stretch: normal ; line-height: normal&quot;&gt;&lt;font face=&quot;helvetica neue&quot;&gt;&lt;span style=&quot;font-size: 13px&quot;&gt;postfix1: ^[^\n]{100}&lt;/span&gt;&lt;/font&gt;&lt;/p&gt;&lt;p class=&quot;p1&quot; style=&quot;margin: 0px ; font-stretch: normal ; line-height: normal&quot;&gt;&lt;font face=&quot;helvetica neue&quot;&gt;&lt;span style=&quot;font-size: 13px&quot;&gt;postfix2: ^[^\n]{1024}&lt;/span&gt;&lt;/font&gt;&lt;/p&gt;&lt;p class=&quot;p1&quot; style=&quot;margin: 0px ; font-stretch: normal ; line-height: normal&quot;&gt;&lt;font face=&quot;helvetica neue&quot;&gt;&lt;span style=&quot;font-size: 13px&quot;&gt;postfix3: ^.{5}def\s*&lt;/span&gt;&lt;/font&gt;&lt;/p&gt;&lt;p class=&quot;p1&quot; style=&quot;margin: 0px ; font-stretch: normal ; line-height: normal&quot;&gt;&lt;font face=&quot;helvetica neue&quot;&gt;&lt;span style=&quot;font-size: 13px&quot;&gt;postfix4: ^.{5}gh&lt;/span&gt;&lt;/font&gt;&lt;/p&gt;&lt;p class=&quot;p1&quot; style=&quot;margin: 0px ; font-stretch: normal ; line-height: normal&quot;&gt;&lt;font face=&quot;helvetica neue&quot;&gt;&lt;span style=&quot;font-size: 13px&quot;&gt;...&lt;/span&gt;&lt;/font&gt;&lt;/p&gt;" style="shape=document;whiteSpace=wrap;html=1;boundedLbl=1;align=left;" vertex="1" parent="1">
          <mxGeometry x="225" y="500" width="190" height="110" as="geometry" />
        </mxCell>
        <mxCell id="IBEG4nVtAPEdGY8RLfQG-23" value="" style="edgeStyle=orthogonalEdgeStyle;rounded=0;orthogonalLoop=1;jettySize=auto;html=1;" edge="1" parent="1" source="IBEG4nVtAPEdGY8RLfQG-8" target="IBEG4nVtAPEdGY8RLfQG-10">
          <mxGeometry relative="1" as="geometry" />
        </mxCell>
        <mxCell id="IBEG4nVtAPEdGY8RLfQG-8" value="regex grouping" style="shape=process;whiteSpace=wrap;html=1;backgroundOutline=1;fillColor=#bac8d3;strokeColor=#23445d;" vertex="1" parent="1">
          <mxGeometry x="490" y="205" width="120" height="60" as="geometry" />
        </mxCell>
        <mxCell id="IBEG4nVtAPEdGY8RLfQG-14" value="" style="edgeStyle=orthogonalEdgeStyle;rounded=0;orthogonalLoop=1;jettySize=auto;html=1;" edge="1" parent="1" source="IBEG4nVtAPEdGY8RLfQG-10" target="IBEG4nVtAPEdGY8RLfQG-13">
          <mxGeometry relative="1" as="geometry" />
        </mxCell>
        <mxCell id="IBEG4nVtAPEdGY8RLfQG-10" value="&lt;p class=&quot;p1&quot; style=&quot;margin: 0px ; font-stretch: normal ; line-height: normal&quot;&gt;&lt;font face=&quot;helvetica neue&quot;&gt;&lt;span style=&quot;font-size: 13px&quot;&gt;group1: {prefix1, prefix2}&lt;/span&gt;&lt;/font&gt;&lt;/p&gt;&lt;p class=&quot;p1&quot; style=&quot;margin: 0px ; font-stretch: normal ; line-height: normal&quot;&gt;&lt;font face=&quot;helvetica neue&quot;&gt;&lt;span style=&quot;font-size: 13px&quot;&gt;group2: {prefix3, prefix4}&lt;/span&gt;&lt;/font&gt;&lt;/p&gt;&lt;p class=&quot;p1&quot; style=&quot;margin: 0px ; font-stretch: normal ; line-height: normal&quot;&gt;&lt;font face=&quot;helvetica neue&quot;&gt;&lt;span style=&quot;font-size: 13px&quot;&gt;...&lt;/span&gt;&lt;/font&gt;&lt;/p&gt;" style="shape=document;whiteSpace=wrap;html=1;boundedLbl=1;align=left;" vertex="1" parent="1">
          <mxGeometry x="455" y="10" width="190" height="110" as="geometry" />
        </mxCell>
        <mxCell id="IBEG4nVtAPEdGY8RLfQG-18" value="" style="edgeStyle=orthogonalEdgeStyle;rounded=0;orthogonalLoop=1;jettySize=auto;html=1;" edge="1" parent="1" source="IBEG4nVtAPEdGY8RLfQG-13" target="IBEG4nVtAPEdGY8RLfQG-17">
          <mxGeometry relative="1" as="geometry" />
        </mxCell>
        <mxCell id="IBEG4nVtAPEdGY8RLfQG-13" value="DFA construct" style="shape=process;whiteSpace=wrap;html=1;backgroundOutline=1;fillColor=#bac8d3;strokeColor=#23445d;" vertex="1" parent="1">
          <mxGeometry x="725" y="35" width="120" height="60" as="geometry" />
        </mxCell>
        <mxCell id="IBEG4nVtAPEdGY8RLfQG-20" value="" style="edgeStyle=orthogonalEdgeStyle;rounded=0;orthogonalLoop=1;jettySize=auto;html=1;" edge="1" parent="1" source="IBEG4nVtAPEdGY8RLfQG-15" target="IBEG4nVtAPEdGY8RLfQG-19">
          <mxGeometry relative="1" as="geometry" />
        </mxCell>
        <mxCell id="IBEG4nVtAPEdGY8RLfQG-15" value="DFA construct" style="shape=process;whiteSpace=wrap;html=1;backgroundOutline=1;fillColor=#bac8d3;strokeColor=#23445d;" vertex="1" parent="1">
          <mxGeometry x="490" y="525" width="120" height="60" as="geometry" />
        </mxCell>
        <mxCell id="IBEG4nVtAPEdGY8RLfQG-26" value="" style="edgeStyle=orthogonalEdgeStyle;rounded=0;orthogonalLoop=1;jettySize=auto;html=1;" edge="1" parent="1" source="IBEG4nVtAPEdGY8RLfQG-17" target="IBEG4nVtAPEdGY8RLfQG-25">
          <mxGeometry relative="1" as="geometry" />
        </mxCell>
        <mxCell id="IBEG4nVtAPEdGY8RLfQG-17" value="&lt;p class=&quot;p1&quot; style=&quot;margin: 0px ; font-stretch: normal ; line-height: normal&quot;&gt;&lt;font face=&quot;helvetica neue&quot;&gt;&lt;span style=&quot;font-size: 13px&quot;&gt;front-end DFA1&lt;/span&gt;&lt;/font&gt;&lt;/p&gt;&lt;p class=&quot;p1&quot; style=&quot;margin: 0px ; font-stretch: normal ; line-height: normal&quot;&gt;&lt;font face=&quot;helvetica neue&quot;&gt;&lt;span style=&quot;font-size: 13px&quot;&gt;front-end DFA2&lt;/span&gt;&lt;/font&gt;&lt;/p&gt;&lt;p class=&quot;p1&quot; style=&quot;margin: 0px ; font-stretch: normal ; line-height: normal&quot;&gt;&lt;font face=&quot;helvetica neue&quot;&gt;&lt;span style=&quot;font-size: 13px&quot;&gt;...&lt;/span&gt;&lt;/font&gt;&lt;/p&gt;" style="shape=document;whiteSpace=wrap;html=1;boundedLbl=1;align=left;" vertex="1" parent="1">
          <mxGeometry x="690" y="180" width="190" height="110" as="geometry" />
        </mxCell>
        <mxCell id="IBEG4nVtAPEdGY8RLfQG-29" style="edgeStyle=orthogonalEdgeStyle;rounded=0;orthogonalLoop=1;jettySize=auto;html=1;exitX=1;exitY=0.5;exitDx=0;exitDy=0;entryX=0;entryY=0.75;entryDx=0;entryDy=0;" edge="1" parent="1" source="IBEG4nVtAPEdGY8RLfQG-19" target="IBEG4nVtAPEdGY8RLfQG-27">
          <mxGeometry relative="1" as="geometry" />
        </mxCell>
        <mxCell id="IBEG4nVtAPEdGY8RLfQG-19" value="&lt;p class=&quot;p1&quot; style=&quot;margin: 0px ; font-stretch: normal ; line-height: normal&quot;&gt;&lt;font face=&quot;helvetica neue&quot;&gt;&lt;span style=&quot;font-size: 13px&quot;&gt;back-end DFA1&lt;/span&gt;&lt;/font&gt;&lt;/p&gt;&lt;p class=&quot;p1&quot; style=&quot;margin: 0px ; font-stretch: normal ; line-height: normal&quot;&gt;&lt;font face=&quot;helvetica neue&quot;&gt;&lt;span style=&quot;font-size: 13px&quot;&gt;back-end DFA2&lt;/span&gt;&lt;/font&gt;&lt;/p&gt;&lt;p class=&quot;p1&quot; style=&quot;margin: 0px ; font-stretch: normal ; line-height: normal&quot;&gt;&lt;font face=&quot;helvetica neue&quot;&gt;&lt;span style=&quot;font-size: 13px&quot;&gt;back-end DFA3&lt;/span&gt;&lt;/font&gt;&lt;/p&gt;&lt;p class=&quot;p1&quot; style=&quot;margin: 0px ; font-stretch: normal ; line-height: normal&quot;&gt;&lt;font face=&quot;helvetica neue&quot;&gt;&lt;span style=&quot;font-size: 13px&quot;&gt;back-end DFA4&lt;/span&gt;&lt;/font&gt;&lt;/p&gt;&lt;p class=&quot;p1&quot; style=&quot;margin: 0px ; font-stretch: normal ; line-height: normal&quot;&gt;&lt;font face=&quot;helvetica neue&quot;&gt;&lt;span style=&quot;font-size: 13px&quot;&gt;...&lt;/span&gt;&lt;/font&gt;&lt;/p&gt;" style="shape=document;whiteSpace=wrap;html=1;boundedLbl=1;align=left;" vertex="1" parent="1">
          <mxGeometry x="690" y="500" width="190" height="110" as="geometry" />
        </mxCell>
        <mxCell id="IBEG4nVtAPEdGY8RLfQG-28" style="edgeStyle=orthogonalEdgeStyle;rounded=0;orthogonalLoop=1;jettySize=auto;html=1;entryX=0;entryY=0.25;entryDx=0;entryDy=0;" edge="1" parent="1" source="IBEG4nVtAPEdGY8RLfQG-21" target="IBEG4nVtAPEdGY8RLfQG-27">
          <mxGeometry relative="1" as="geometry" />
        </mxCell>
        <mxCell id="IBEG4nVtAPEdGY8RLfQG-21" value="&lt;p class=&quot;p1&quot; style=&quot;margin: 0px ; font-stretch: normal ; line-height: normal&quot;&gt;&lt;font face=&quot;helvetica neue&quot;&gt;&lt;span style=&quot;font-size: 13px&quot;&gt;prefix1 -&amp;gt; postfix1&lt;/span&gt;&lt;/font&gt;&lt;/p&gt;&lt;p class=&quot;p1&quot; style=&quot;margin: 0px ; font-stretch: normal ; line-height: normal&quot;&gt;&lt;font face=&quot;helvetica neue&quot;&gt;&lt;span style=&quot;font-size: 13px&quot;&gt;prefix2 -&amp;gt; postfix2&lt;/span&gt;&lt;/font&gt;&lt;/p&gt;&lt;p class=&quot;p1&quot; style=&quot;margin: 0px ; font-stretch: normal ; line-height: normal&quot;&gt;&lt;font face=&quot;helvetica neue&quot;&gt;&lt;span style=&quot;font-size: 13px&quot;&gt;prefix4 -&amp;gt; postfix3 -&amp;gt; postfix4&lt;/span&gt;&lt;/font&gt;&lt;/p&gt;&lt;p class=&quot;p1&quot; style=&quot;margin: 0px ; font-stretch: normal ; line-height: normal&quot;&gt;&lt;font face=&quot;helvetica neue&quot;&gt;&lt;span style=&quot;font-size: 13px&quot;&gt;...&lt;/span&gt;&lt;/font&gt;&lt;/p&gt;" style="shape=document;whiteSpace=wrap;html=1;boundedLbl=1;align=left;" vertex="1" parent="1">
          <mxGeometry x="690" y="340" width="190" height="110" as="geometry" />
        </mxCell>
        <mxCell id="IBEG4nVtAPEdGY8RLfQG-39" value="" style="edgeStyle=orthogonalEdgeStyle;rounded=0;orthogonalLoop=1;jettySize=auto;html=1;" edge="1" parent="1" source="IBEG4nVtAPEdGY8RLfQG-25" target="IBEG4nVtAPEdGY8RLfQG-38">
          <mxGeometry relative="1" as="geometry" />
        </mxCell>
        <mxCell id="IBEG4nVtAPEdGY8RLfQG-25" value="FPGA" style="whiteSpace=wrap;html=1;aspect=fixed;fillColor=#bac8d3;strokeColor=#23445d;" vertex="1" parent="1">
          <mxGeometry x="990" y="195" width="80" height="80" as="geometry" />
        </mxCell>
        <mxCell id="IBEG4nVtAPEdGY8RLfQG-42" value="" style="edgeStyle=orthogonalEdgeStyle;rounded=0;orthogonalLoop=1;jettySize=auto;html=1;" edge="1" parent="1" source="IBEG4nVtAPEdGY8RLfQG-27" target="IBEG4nVtAPEdGY8RLfQG-41">
          <mxGeometry relative="1" as="geometry" />
        </mxCell>
        <mxCell id="IBEG4nVtAPEdGY8RLfQG-27" value="CPU" style="whiteSpace=wrap;html=1;aspect=fixed;fillColor=#bac8d3;strokeColor=#23445d;" vertex="1" parent="1">
          <mxGeometry x="990" y="495" width="80" height="80" as="geometry" />
        </mxCell>
        <mxCell id="IBEG4nVtAPEdGY8RLfQG-31" value="" style="edgeStyle=orthogonalEdgeStyle;rounded=0;orthogonalLoop=1;jettySize=auto;html=1;" edge="1" parent="1" source="IBEG4nVtAPEdGY8RLfQG-30" target="IBEG4nVtAPEdGY8RLfQG-25">
          <mxGeometry relative="1" as="geometry" />
        </mxCell>
        <mxCell id="IBEG4nVtAPEdGY8RLfQG-33" style="edgeStyle=orthogonalEdgeStyle;rounded=0;orthogonalLoop=1;jettySize=auto;html=1;entryX=1;entryY=0.5;entryDx=0;entryDy=0;exitX=1;exitY=0.5;exitDx=0;exitDy=0;exitPerimeter=0;" edge="1" parent="1" source="IBEG4nVtAPEdGY8RLfQG-30" target="IBEG4nVtAPEdGY8RLfQG-27">
          <mxGeometry relative="1" as="geometry" />
        </mxCell>
        <mxCell id="IBEG4nVtAPEdGY8RLfQG-30" value="&lt;br&gt;xxxabc12345def&lt;br&gt;12345ghxxx&lt;br&gt;..." style="shape=tape;whiteSpace=wrap;html=1;align=left;" vertex="1" parent="1">
          <mxGeometry x="960" y="10" width="140" height="120" as="geometry" />
        </mxCell>
        <mxCell id="IBEG4nVtAPEdGY8RLfQG-40" value="" style="edgeStyle=orthogonalEdgeStyle;rounded=0;orthogonalLoop=1;jettySize=auto;html=1;" edge="1" parent="1" source="IBEG4nVtAPEdGY8RLfQG-38" target="IBEG4nVtAPEdGY8RLfQG-27">
          <mxGeometry relative="1" as="geometry" />
        </mxCell>
        <mxCell id="IBEG4nVtAPEdGY8RLfQG-38" value="prefix4 (abc) is matched&lt;br&gt;..." style="shape=document;whiteSpace=wrap;html=1;boundedLbl=1;align=left;" vertex="1" parent="1">
          <mxGeometry x="960" y="340" width="140" height="80" as="geometry" />
        </mxCell>
        <mxCell id="IBEG4nVtAPEdGY8RLfQG-41" value="RE4 is matched&lt;br&gt;..." style="shape=document;whiteSpace=wrap;html=1;boundedLbl=1;align=left;" vertex="1" parent="1">
          <mxGeometry x="960" y="625" width="140" height="80" as="geometry" />
        </mxCell>
        <mxCell id="IBEG4nVtAPEdGY8RLfQG-43" value="&lt;b&gt;Regex Set&lt;/b&gt;" style="text;html=1;strokeColor=none;fillColor=none;align=center;verticalAlign=middle;whiteSpace=wrap;rounded=0;" vertex="1" parent="1">
          <mxGeometry x="130" y="442" width="70" height="20" as="geometry" />
        </mxCell>
        <mxCell id="IBEG4nVtAPEdGY8RLfQG-44" value="&lt;b&gt;Prefix Set&lt;/b&gt;" style="text;html=1;strokeColor=none;fillColor=none;align=center;verticalAlign=middle;whiteSpace=wrap;rounded=0;" vertex="1" parent="1">
          <mxGeometry x="343" y="281" width="70" height="20" as="geometry" />
        </mxCell>
        <mxCell id="IBEG4nVtAPEdGY8RLfQG-45" value="&lt;b&gt;Postfix Set&lt;/b&gt;" style="text;html=1;strokeColor=none;fillColor=none;align=center;verticalAlign=middle;whiteSpace=wrap;rounded=0;" vertex="1" parent="1">
          <mxGeometry x="345" y="604" width="70" height="20" as="geometry" />
        </mxCell>
        <mxCell id="IBEG4nVtAPEdGY8RLfQG-46" value="&lt;b&gt;Relation Mapping Table&lt;br&gt;(RMT)&lt;br&gt;&lt;/b&gt;" style="text;html=1;strokeColor=none;fillColor=none;align=center;verticalAlign=middle;whiteSpace=wrap;rounded=0;" vertex="1" parent="1">
          <mxGeometry x="743" y="452" width="140" height="20" as="geometry" />
        </mxCell>
        <mxCell id="IBEG4nVtAPEdGY8RLfQG-47" value="&lt;b&gt;Input Traffic&lt;/b&gt;" style="text;html=1;strokeColor=none;fillColor=none;align=center;verticalAlign=middle;whiteSpace=wrap;rounded=0;" vertex="1" parent="1">
          <mxGeometry x="1023" y="108" width="90" height="20" as="geometry" />
        </mxCell>
        <mxCell id="IBEG4nVtAPEdGY8RLfQG-48" value="&lt;b&gt;Prefix Matches&lt;/b&gt;" style="text;html=1;strokeColor=none;fillColor=none;align=center;verticalAlign=middle;whiteSpace=wrap;rounded=0;" vertex="1" parent="1">
          <mxGeometry x="1031" y="420" width="87" height="20" as="geometry" />
        </mxCell>
        <mxCell id="IBEG4nVtAPEdGY8RLfQG-49" value="&lt;b&gt;Regex Matches&lt;/b&gt;" style="text;html=1;strokeColor=none;fillColor=none;align=center;verticalAlign=middle;whiteSpace=wrap;rounded=0;" vertex="1" parent="1">
          <mxGeometry x="1024.5" y="700" width="95.5" height="20" as="geometry" />
        </mxCell>
        <mxCell id="IBEG4nVtAPEdGY8RLfQG-51" value="" style="endArrow=none;dashed=1;html=1;" edge="1" parent="1">
          <mxGeometry width="50" height="50" relative="1" as="geometry">
            <mxPoint x="910" y="760" as="sourcePoint" />
            <mxPoint x="910" y="10" as="targetPoint" />
          </mxGeometry>
        </mxCell>
        <mxCell id="IBEG4nVtAPEdGY8RLfQG-52" value="" style="endArrow=classic;startArrow=classic;html=1;" edge="1" parent="1">
          <mxGeometry width="50" height="50" relative="1" as="geometry">
            <mxPoint x="20" y="742" as="sourcePoint" />
            <mxPoint x="900" y="742" as="targetPoint" />
          </mxGeometry>
        </mxCell>
        <mxCell id="IBEG4nVtAPEdGY8RLfQG-53" value="&lt;i&gt;&amp;nbsp;Compiling&amp;nbsp;&lt;/i&gt;" style="edgeLabel;html=1;align=center;verticalAlign=middle;resizable=0;points=[];" vertex="1" connectable="0" parent="IBEG4nVtAPEdGY8RLfQG-52">
          <mxGeometry x="-0.034" y="-2" relative="1" as="geometry">
            <mxPoint y="-3" as="offset" />
          </mxGeometry>
        </mxCell>
        <mxCell id="IBEG4nVtAPEdGY8RLfQG-54" value="" style="endArrow=classic;startArrow=classic;html=1;" edge="1" parent="1">
          <mxGeometry width="50" height="50" relative="1" as="geometry">
            <mxPoint x="920" y="742" as="sourcePoint" />
            <mxPoint x="1130" y="742" as="targetPoint" />
          </mxGeometry>
        </mxCell>
        <mxCell id="IBEG4nVtAPEdGY8RLfQG-55" value="&lt;i&gt;&amp;nbsp;Matching&amp;nbsp;&lt;/i&gt;" style="edgeLabel;html=1;align=center;verticalAlign=middle;resizable=0;points=[];" vertex="1" connectable="0" parent="IBEG4nVtAPEdGY8RLfQG-54">
          <mxGeometry x="-0.034" y="-2" relative="1" as="geometry">
            <mxPoint y="-3" as="offset" />
          </mxGeometry>
        </mxCell>
      </root>
    </mxGraphModel>
  </diagram>
</mxfile>
